# AST/ASF file generated using VICON BodyLanguage
# -----------------------------------------------
:version 1.10
:name VICON
:units
  mass 1.0
  length 0.45
  angle deg
:documentation
   .ast/.asf automatically generated from VICON data using
   VICON BodyBuilder and BodyLanguage model FoxedUp or BRILLIANT.MOD
:root
   order TX TY TZ RX RY RZ
   axis XYZ
   position 0 0 0  
   orientation 0 0 0 
:bonedata
  begin
     id 1 
     name lhipjoint
     direction 0.547975 -0.797114 0.253638 
     length 2.36201 
     axis 0 0 0  XYZ
  end
  begin
     id 2 
     name lfemur
     direction 0.34202 -0.939693 0  
     length 7.69075  
     axis 0 0 20  XYZ
    dof rx ry rz
    limits (-160.0 20.0)
           (-70.0 70.0)
           (-60.0 70.0)
  end
  begin
     id 3 
     name ltibia
     direction 0.34202 -0.939693 0   
     length 7.91399   
     axis 0 0 20   XYZ
    dof rx
    limits (-10.0 170.0)
  end
  begin
     id 4 
     name lfoot
     direction 0.0705293 -0.193778 0.978507   
     length 2.13618   
     axis -90 7.62852e-016 20   XYZ
    dof rx rz
    limits (-45.0 90.0)
           (-70.0 20.0)
  end
  begin
     id 5 
     name ltoes
     direction 1.53592e-011 -4.21925e-011 1   
     length 1.07518   
     axis -90 7.62852e-016 20   XYZ
    dof rx
    limits (-90.0 20.0)
  end
  begin
     id 6 
     name rhipjoint
     direction -0.57 -0.782963 0.249136   
     length 2.4047  
     axis 0 0 0  XYZ 
  end
  begin
     id 7 
     name rfemur
     direction -0.34202 -0.939693 0   
     length 7.51486   
     axis 0 0 -20   XYZ
    dof rx ry rz
    limits (-160.0 20.0)
           (-70.0 70.0)
           (-70.0 60.0)
  end
  begin
     id 8 
     name rtibia
     direction -0.34202 -0.939693 0   
     length 8.08317   
     axis 0 0 -20   XYZ
    dof rx
    limits (-10.0 170.0)
 end
 begin
     id 9 
     name rfoot
     direction -0.104954 -0.281256 0.953876   
     length 2.30343  
     axis -90 -7.62852e-016 -20   XYZ
    dof rx rz
    limits (-45.0 90.0)
           (-20.0 70.0)
  end
  begin
     id 10 
     name rtoes
     direction -1.53556e-011 -4.21922e-011 1   
     length 1.14803   
     axis -90 -7.62852e-016 -20   XYZ
    dof rx
    limits (-90.0 20.0)
  end
  begin
     id 11 
     name lowerback
     direction -0.0152855 0.99353 -0.11254   
     length 2.05311   
     axis 0 0 0   XYZ
    dof rx ry rz
    limits (-20.0 45.0)
           (-30.0 30.0)
           (-30.0 30.0)
  end
  begin
     id 12 
     name upperback
     direction -0.00157509 0.999443 -0.033332   
     length 2.06353   
     axis 0 0 0   XYZ
    dof rx ry rz
    limits (-20.0 45.0)
           (-30.0 30.0)
           (-30.0 30.0)
  end
  begin
     id 13 
     name thorax
     direction 0.00577788 0.999804 0.0189484   
     length 2.08472   
     axis 0 0 0   XYZ
    dof rx ry rz
    limits (-20.0 45.0)
           (-30.0 30.0)
           (-30.0 30.0)
  end
  begin
     id 14 
     name lowerneck
     direction -1.09301e-005 0.994719 0.10264   
     length 1.76249   
     axis 0 0 0   XYZ
    dof rx ry rz
    limits (-20.0 45.0)
           (-30.0 30.0)
           (-30.0 30.0)
  end
  begin
     id 15 
     name upperneck
     direction 0.0495018 0.988526 -0.142706   
     length 1.77897   
     axis 0 0 0   XYZ
    dof rx ry rz
    limits (-20.0 45.0)
           (-30.0 30.0)
           (-30.0 30.0)
  end
  begin
     id 16
     name head
     direction 0.0142736 0.998114 -0.0597101  
     length 1.78934  
     axis 0 0 0   XYZ
    dof rx ry rz
    limits (-20.0 45.0)
           (-30.0 30.0)
           (-30.0 30.0)
  end
  begin
     id 17 
     name lclavicle
     direction 0.918111 0.396107 -0.0130883  
     length 3.37276  
     axis 0 0 0   XYZ
    dof ry rz
    limits (-20.0 10.0)
           (0.0 20.0)
  end
  begin
     id 18 
     name lhumerus
     direction 1 -4.48975e-011 -3.26108e-027   
     length 5.34298   
     axis 180 -30 -90   XYZ
    dof rx ry rz
    limits (-60.0 90.0)
           (-90.0 90.0)
           (-90.0 90.0)
  end
  begin
     id 19
     name lradius
     direction 1 -4.48964e-011 -8.84413e-028   
     length 3.67262   
     axis 180 -30 -90   XYZ
    dof rx
    limits (-10.0 170.0)
  end
  begin
     id 20
     name lwrist
     direction 1 -4.48991e-011 -1.24264e-027   
     length 1.83631   
     axis -2.17013e-015 90 90   XYZ
    dof ry
    limits (-180.0 0.0)
 end
  begin
     id 21 
     name lhand
     direction 1 -4.48855e-011 -2.48528e-027   
     length 0.599298   
     axis 1.58582e-015 90 90   XYZ
    dof rx rz
    limits (-90.0 90.0)
           (-45.0 45.0)
  end
  begin
     id 22 
     name lfingers
     direction 1 -4.48811e-011 -4.97056e-027   
     length 0.48317   
     axis 3.17164e-015 90 90   XYZ
    dof rx
    limits (0.0 90.0)
  end
  begin
     id 23
     name lthumb
     direction 0.707107 -6.34882e-011 0.707107   
     length 0.693738   
     axis -90 45 2.85299e-015   XYZ
    dof rx rz
    limits (-45.0 45.0)
           (-45.0 45.0)
  end
  begin
     id 24 
     name rclavicle
     direction -0.920511 0.384752 -0.0680135   
     length 3.43787  
     axis 0 0 0   XYZ 
    dof ry rz
    limits (-10.0 20.0)
           (-20.0 0.0)
  end
  begin
     id 25 
     name rhumerus
     direction -0.999976 -0.00330524 0.00603274  
     length 5.5498   
     axis 180 30 90   XYZ
    dof rx ry rz
    limits (-90.0 60.0)
           (-90.0 90.0)
           (-90.0 90.0)
  end
  begin
     id 26 
     name rradius
     direction -1 -4.48967e-011 8.62438e-027   
     length 3.69401   
     axis 180 30 90   XYZ
    dof rx
    limits (-10.0 170.0)
  end
  begin
     id 27 
     name rwrist
     direction -1 -4.4897e-011 9.54866e-027   
     length 1.84701   
     axis -7.69462e-015 -90 -90   XYZ
    dof ry
    limits (-180.0 0.0)
  end
  begin
     id 28
     name rhand
     direction -1 -4.48982e-011 1.90973e-026   
     length 0.638113   
     axis -1.21857e-014 -90 -90   XYZ
    dof rx rz
    limits (-90.0 90.0)
           (-45.0 45.0)
  end
  begin
     id 29
     name rfingers
     direction -1 -4.48936e-011 3.81946e-026   
     length 0.514463   
     axis -2.43714e-014 -90 -90   XYZ
    dof rx
    limits (0.0 90.0)
  end
  begin
     id 30
     name rthumb
     direction -0.707107 -6.34942e-011 0.707107   
     length 0.738669   
     axis -90 -45 -2.85299e-015   XYZ
    dof rx rz
    limits (-45.0 45.0)
           (-45.0 45.0)
  end
:hierarchy
  begin
    root lhipjoint rhipjoint lowerback
    lhipjoint lfemur
    lfemur ltibia
    ltibia lfoot
    lfoot ltoes
    rhipjoint rfemur
    rfemur rtibia
    rtibia rfoot
    rfoot rtoes
    lowerback upperback
    upperback thorax
    thorax lowerneck lclavicle rclavicle
    lowerneck upperneck
    upperneck head
    lclavicle lhumerus
    lhumerus lradius
    lradius lwrist
    lwrist lhand lthumb
    lhand lfingers
    rclavicle rhumerus
    rhumerus rradius
    rradius rwrist
    rwrist rhand rthumb
    rhand rfingers
  end

#!OML:ASF F:\twosubjects\two\Thursday\Session 1\Rory.ASF
:FULLY-SPECIFIED
:DEGREES
65
root 7.43053 10.5291 11.9417 162.326 -6.38578 178.249
lowerback 38.9635 4.97579 3.04745
upperback 17.6157 0.623981 -0.401677
thorax 0.512245 -2.20451 -2.21803
lowerneck -7.81337 8.57051 5.31706
upperneck -8.58448 10.1356 -11.376
head -0.458234 4.71227 -4.39472
rclavicle 1.77291e-014 -2.58172e-014
rhumerus 30.2287 29.2226 -60.91
rradius 63.3383
rwrist -6.14882
rhand -44.6324 36.3506
rfingers 7.12502
rthumb -17.4299 7.11203
lclavicle 1.77291e-014 -2.58172e-014
lhumerus 30.5253 -33.276 65.8949
lradius 59.9773
lwrist -18.1668
lhand -13.9089 16.9005
lfingers 7.12502
lthumb 12.2169 46.5237
rfemur -70.1083 -23.7022 2.81679
rtibia 111.699
rfoot -15.8415 3.45213
rtoes -9.74853
lfemur -62.8029 22.8063 1.03306
ltibia 105.895
lfoot -14.9783 -20.1108
ltoes -4.32502
66
root 7.42463 10.5367 11.9286 162.526 -6.42624 177.849
lowerback 39.1039 4.98931 2.59203
upperback 17.5238 0.486607 -0.618946
thorax 0.341081 -2.28704 -2.15952
lowerneck -8.55898 7.57166 4.63832
upperneck -7.84894 8.90633 -9.93558
head -0.311811 4.0927 -3.77765
rclavicle -2.32578e-014 3.97569e-016
rhumerus 29.8208 29.4063 -61.5493
rradius 63.8515
rwrist -6.06985
rhand -45.0318 36.4877
rfingers 7.12502
rthumb -17.8142 7.28367
lclavicle -2.32578e-014 3.97569e-016
lhumerus 29.8177 -33.028 65.976
lradius 60.7107
lwrist -18.1039
lhand -13.8127 16.6402
lfingers 7.12502
lthumb 12.3097 46.2579
rfemur -70.2045 -24.0696 2.2308
rtibia 112.316
rfoot -16.0167 1.70788
rtoes -7.97908
lfemur -62.3443 22.9466 0.735466
ltibia 106.251
lfoot -15.5496 -19.5443
ltoes -4.40216
67
root 7.42047 10.5438 11.9197 162.607 -6.5406 177.538
lowerback 39.5583 4.94415 2.3061
upperback 17.3144 0.315212 -0.851095
thorax 0.109148 -2.383 -2.18622
lowerneck -9.37393 6.54624 3.88921
upperneck -6.96539 7.67354 -8.24339
head -0.0956543 3.48214 -3.07303
rclavicle 8.54774e-015 1.49089e-015
rhumerus 29.4515 29.4857 -62.2786
rradius 64.3973
rwrist -5.83302
rhand -45.2589 36.6217
rfingers 7.12502
rthumb -18.0328 7.43769
lclavicle 8.54774e-015 1.49089e-015
lhumerus 29.3174 -32.8482 66.0541
lradius 61.2318
lwrist -18.1469
lhand -13.9157 16.6653
lfingers 7.12502
lthumb 12.2104 46.2889
rfemur -69.8985 -24.3484 1.50327
rtibia 112.941
rfoot -16.3012 0.451705
rtoes -1.58087
lfemur -61.8361 22.9127 0.639742
ltibia 106.679
lfoot -16.0669 -19.4854
ltoes -4.44432
68
root 7.41505 10.5477 11.9071 162.962 -6.41407 177.72
lowerback 39.4431 4.92197 2.31525
upperback 17.2336 0.341794 -0.83279
thorax 0.0548701 -2.34975 -2.17797
lowerneck -10.1486 5.55017 3.08277
upperneck -6.25498 6.46307 -6.65812
head 0.0901972 2.88849 -2.41944
rclavicle 1.38155e-014 -3.21037e-014
rhumerus 29.2272 29.5049 -62.5427
rradius 64.7697
rwrist -5.98577
rhand -45.3481 36.4529
rfingers 7.12502
rthumb -18.1186 7.27678
lclavicle 1.38155e-014 -3.21037e-014
lhumerus 29.0635 -32.7244 66.4122
lradius 61.4627
lwrist -18.3022
lhand -14.7443 16.9907
lfingers 7.12502
lthumb 11.4113 46.6602
rfemur -69.8133 -24.3004 1.45762
rtibia 113.527
rfoot -16.7825 -0.9464
rtoes 3.06175
lfemur -61.9564 23.088 1.08842
ltibia 107.247
lfoot -16.14 -20.0192
ltoes -4.93846
69
root 7.41263 10.5614 11.8947 163.437 -6.21119 177.939
lowerback 38.949 5.1318 2.1342
upperback 17.4206 0.562442 -0.543334
thorax 0.256171 -2.25963 -1.86432
lowerneck -10.8935 4.5631 2.19091
upperneck -6.02043 5.21486 -5.46463
head 0.157231 2.26748 -1.90551
rclavicle 3.40916e-014 -3.07619e-014
rhumerus 29.1698 29.3446 -62.3012
rradius 65.1469
rwrist -6.17335
rhand -45.4839 36.1039
rfingers 7.12502
rthumb -18.2492 6.93991
lclavicle 3.40916e-014 -3.07619e-014
lhumerus 28.9876 -32.5973 66.8475
lradius 61.9433
lwrist -18.3887
lhand -14.2228 16.4507
lfingers 7.12502
lthumb 11.9142 46.0917
rfemur -70.0159 -24.3129 1.66263
rtibia 114.084
rfoot -16.9867 -2.54858
rtoes 2.69905
lfemur -62.4138 23.4213 1.34282
ltibia 107.816
lfoot -19.5888 -16.1593
ltoes -22.8305
70
root 7.40764 10.5564 11.8767 163.838 -6.16769 177.857
lowerback 38.725 5.27052 1.7695
upperback 17.5752 0.562249 -0.404336
thorax 0.478656 -2.30725 -1.53949
lowerneck -11.4632 3.60451 1.14459
upperneck -6.16696 4.00223 -4.18002
head 0.0951882 1.66704 -1.35235
rclavicle 2.48978e-014 -2.87741e-014
rhumerus 29.4148 29.3156 -62.2208
rradius 65.6067
rwrist -6.49132
rhand -45.3635 35.7605
rfingers 7.12502
rthumb -18.1334 6.58577
lclavicle 2.48978e-014 -2.87741e-014
lhumerus 28.8593 -32.2417 66.85
lradius 62.6424
lwrist -18.3045
lhand -9.65104 13.589
lfingers 7.12502
lthumb 16.3197 42.9223
rfemur -70.177 -24.759 1.45072
rtibia 114.683
rfoot -17.0336 -3.96018
rtoes 1.82688
lfemur -62.1733 23.5393 1.46215
ltibia 108.085
lfoot -21.1102 -14.1921
ltoes -27.9177
71
root 7.40031 10.5596 11.8622 164.226 -6.07561 178.044
lowerback 38.7242 5.11641 1.8339
upperback 17.531 0.398148 -0.441398
thorax 0.427281 -2.37562 -1.5571
lowerneck -11.6889 2.68019 0.28288
upperneck -6.35775 2.84385 -2.82585
head -0.00325222 1.10273 -0.821523
rclavicle 2.73329e-014 -2.87244e-014
rhumerus 29.182 29.3261 -62.9803
rradius 66.1388
rwrist -6.5163
rhand -44.772 35.7738
rfingers 7.12502
rthumb -17.5643 6.54722
lclavicle 2.73329e-014 -2.87244e-014
lhumerus 28.4346 -31.7956 66.9118
lradius 63.2082
lwrist -18.3043
lhand -7.59539 14.4267
lfingers 7.12502
lthumb 18.2981 43.586
rfemur -69.8793 -24.9191 1.37149
rtibia 115.022
rfoot -17.588 -4.93408
rtoes 2.21771
lfemur -62.3404 23.582 1.85536
ltibia 108.355
lfoot -17.6287 -19.9799
ltoes -6.57324
72
root 7.3925 10.5631 11.8448 164.649 -6.01101 178.317
lowerback 38.8056 4.89018 2.04594
upperback 17.3084 0.276276 -0.537401
thorax 0.160331 -2.38081 -1.7165
lowerneck -11.2185 1.90628 -0.160004
upperneck -6.98121 1.83206 -1.80625
head -0.308062 0.606283 -0.470666
rclavicle -2.38542e-015 6.65929e-015
rhumerus 28.0255 29.177 -64.3682
rradius 66.9703
rwrist -5.53269
rhand -44.2847 35.2576
rfingers 7.12502
rthumb -17.0952 5.98971
lclavicle -2.38542e-015 6.65929e-015
lhumerus 27.6552 -31.5867 67.2606
lradius 63.7822
lwrist -18.1476
lhand -20.0276 22.7545
lfingers 7.12502
lthumb 6.31313 52.6404
rfemur -69.3741 -25.0081 1.20861
rtibia 115.269
rfoot -18.3123 -5.03839
rtoes 0.47324
lfemur -62.5997 23.5338 2.12871
ltibia 108.411
lfoot -18.8424 -19.547
ltoes -8.56361
73
root 7.38534 10.5662 11.8252 165.173 -6.05537 178.359
lowerback 38.6239 4.73551 2.07643
upperback 17.2399 0.148294 -0.654357
thorax 0.134974 -2.40763 -1.81303
lowerneck -10.6207 1.23788 -0.740561
upperneck -7.96622 0.954667 -0.726763
head -0.724171 0.164301 -0.0748892
rclavicle -4.96962e-015 8.54774e-015
rhumerus 27.6069 29.1148 -65.0712
rradius 67.4238
rwrist -4.82256
rhand -44.1549 35.1374
rfingers 7.12502
rthumb -16.9703 5.8587
lclavicle -4.96962e-015 8.54774e-015
lhumerus 27.0753 -31.4161 67.4034
lradius 64.3017
lwrist -17.8481
lhand -15.3498 17.9243
lfingers 7.12502
lthumb 10.8274 47.6252
rfemur -68.9974 -25.1235 0.827343
rtibia 115.43
rfoot -19.0482 -4.88625
rtoes -3.07758
lfemur -62.7922 23.4295 1.90032
ltibia 108.19
lfoot -19.8601 -18.9695
ltoes -10.4948
74
root 7.38051 10.5697 11.8115 165.68 -6.10038 177.954
lowerback 38.5693 4.76552 1.77788
upperback 17.4084 -0.00507757 -0.891261
thorax 0.319959 -2.51009 -1.86637
lowerneck -11.1263 0.571394 -1.40781
upperneck -8.39142 0.102443 0.597951
head -0.779061 -0.279759 0.419525
rclavicle -3.01159e-014 1.90833e-014
rhumerus 28.2295 29.0944 -65.0105
rradius 67.362
rwrist -4.77092
rhand -44.4001 36.2431
rfingers 7.12502
rthumb -17.2064 6.98493
lclavicle -3.01159e-014 1.90833e-014
lhumerus 27.2065 -31.093 67.1636
lradius 64.718
lwrist -17.6729
lhand -14.022 18.9963
lfingers 7.12502
lthumb 12.1079 48.626
rfemur -68.8597 -25.0303 0.144708
rtibia 115.393
rfoot -20.042 -4.86743
rtoes -8.53472
lfemur -62.9644 23.2226 1.27068
ltibia 107.932
lfoot -20.5526 -17.9984
ltoes -12.9384
75
root 7.37919 10.5863 11.8077 165.915 -6.09758 177.476
lowerback 38.8114 4.94132 1.13241
upperback 17.4494 -0.0839382 -0.901327
thorax 0.269578 -2.61843 -1.51487
lowerneck -10.801 -0.0144578 -2.40058
upperneck -9.06706 -0.583032 1.95528
head -1.0301 -0.622181 0.997538
rclavicle -2.36554e-014 -2.0276e-014
rhumerus 27.9153 29.3764 -65.1816
rradius 67.7501
rwrist -4.34115
rhand -44.9724 36.8935
rfingers 7.12502
rthumb -17.7571 7.68424
lclavicle -2.36554e-014 -2.0276e-014
lhumerus 26.9113 -30.6776 67.5479
lradius 65.052
lwrist -17.8194
lhand -12.8346 19.8993
lfingers 7.12502
lthumb 13.2526 49.458
rfemur -68.4133 -24.6931 -0.592274
rtibia 115.026
rfoot -21.1797 -4.92686
rtoes -15.6832
lfemur -62.9028 22.8953 0.700884
ltibia 107.725
lfoot -21.0939 -17.0044
ltoes -15.5552
76
root 7.37933 10.6032 11.7975 166.164 -6.09178 177.493
lowerback 39.5313 4.9601 1.00748
upperback 17.0982 -0.0806885 -0.816163
thorax -0.183204 -2.62189 -1.34008
lowerneck -10.4574 -0.539994 -3.34972
upperneck -9.62694 -1.18351 3.16546
head -1.24092 -0.920352 1.54232
rclavicle -1.74931e-014 -1.59028e-014
rhumerus 26.8322 29.3666 -65.9709
rradius 68.2963
rwrist -3.43567
rhand -45.6237 36.2822
rfingers 7.12502
rthumb -18.3837 7.13089
lclavicle -1.74931e-014 -1.59028e-014
lhumerus 26.5035 -30.6399 67.8497
lradius 65.3199
lwrist -18.2193
lhand -13.7439 18.2437
lfingers 7.12502
lthumb 12.376 47.8573
rfemur -67.8997 -24.4006 -0.757381
rtibia 114.559
rfoot -21.9472 -4.9406
rtoes -20.3132
lfemur -63.088 22.7943 0.513308
ltibia 107.618
lfoot -21.4892 -16.4891
ltoes -16.622
77
root 7.3777 10.5957 11.7746 166.646 -6.0727 177.63
lowerback 39.8524 5.02835 0.913026
upperback 16.8705 0.0493313 -0.543422
thorax -0.530898 -2.55364 -1.03118
lowerneck -10.2882 -1.17771 -3.9882
upperneck -10.2925 -2.01316 3.7613
head -1.4463 -1.35175 1.84126
rclavicle -3.27995e-015 1.74931e-014
rhumerus 26.432 29.2648 -66.1189
rradius 68.1941
rwrist -2.57141
rhand -45.8333 35.457
rfingers 7.12502
rthumb -18.5854 6.32484
lclavicle -3.27995e-015 1.74931e-014
lhumerus 26.2849 -30.7711 68.1273
lradius 65.6139
lwrist -19.065
lhand -13.672 18.7223
lfingers 7.12502
lthumb 12.4453 48.3318
rfemur -68.1713 -24.4113 -0.571931
rtibia 114.408
rfoot -21.8067 -5.0029
rtoes -21.5269
lfemur -63.7483 22.8655 0.341591
ltibia 107.706
lfoot -21.2899 -16.5899
ltoes -15.48
78
root 7.37333 10.5919 11.7569 167.049 -6.05018 177.433
lowerback 40.3743 5.13643 0.708561
upperback 16.7237 0.101912 -0.492165
thorax -0.852823 -2.54322 -0.875342
lowerneck -10.4485 -1.79835 -4.2188
upperneck -10.8 -2.86184 4.25067
head -1.54276 -1.8082 2.03061
rclavicle 1.48095e-014 -2.70347e-014
rhumerus 26.4572 29.1702 -66.1104
rradius 67.8997
rwrist -1.73045
rhand -45.5596 34.5468
rfingers 7.12502
rthumb -18.322 5.38971
lclavicle 1.48095e-014 -2.70347e-014
lhumerus 26.1304 -30.9355 67.9879
lradius 66.0686
lwrist -20.2614
lhand -13.627 18.828
lfingers 7.12502
lthumb 12.4887 48.4348
rfemur -68.917 -24.5417 -0.649873
rtibia 114.489
rfoot -21.3143 -4.73227
rtoes -19.2923
lfemur -64.1724 22.7971 -0.0603788
ltibia 107.839
lfoot -22.4204 -14.8127
ltoes -21.638
